# xmcd
#
# Track frame offsets: 
#        150
#        22828
#        43488
#        63133
#        81943
#        98141
#        116431
#        128698
#        145121
#        162847
#        185416
#        213425
#        227355
#
# Disc length: 3243 seconds
#
# Revision: 1
# Processed by: cddbd v1.5.2PL0 Copyright (c) Steve Scherf et al.
# Submitted via: ExactAudioCopyFreeDBPlugin 1.0
#
DISCID=a30ca90d
DTITLE=Remy Shand - The Way I Feel
DYEAR=2001
DGENRE=Soul
TTITLE0=The Way I Feel
TTITLE1=Burning Bridges
TTITLE2=Everlasting
TTITLE3=The Second One
TTITLE4=The Colour Of Day
TTITLE5=Take A Message
TTITLE6=I Met Your Mercy
TTITLE7=Rocksteady
TTITLE8=Liberate
TTITLE9=Looking Back On Vanity
TTITLE10=The Mind's Eye
TTITLE11=Mai
TTITLE12=Ripened and Consumed
EXTD=
EXTT0=
EXTT1=
EXTT2=
EXTT3=
EXTT4=
EXTT5=
EXTT6=
EXTT7=
EXTT8=
EXTT9=
EXTT10=
EXTT11=
EXTT12=
PLAYORDER=
